<svg xmlns="http://www.w3.org/2000/svg" width="28.914" height="26.022" viewBox="0 0 28.914 26.022">
  <path id="Path_152" data-name="Path 152" d="M19.522,4.891l2.646,2.891h5.855V25.131H4.891V7.783h5.855l2.646-2.891h6.13M20.794,2H12.12L9.474,4.891H4.891A2.9,2.9,0,0,0,2,7.783V25.131a2.9,2.9,0,0,0,2.891,2.891H28.022a2.9,2.9,0,0,0,2.891-2.891V7.783a2.9,2.9,0,0,0-2.891-2.891H23.44ZM16.457,12.12a4.337,4.337,0,1,1-4.337,4.337,4.35,4.35,0,0,1,4.337-4.337m0-2.891a7.228,7.228,0,1,0,7.228,7.228A7.231,7.231,0,0,0,16.457,9.228Z" transform="translate(-2 -2)" fill="#fff"/>
</svg>
